<svg width="18" height="18" viewBox="0 0 1024 1024" fill="none" xmlns="http://www.w3.org/2000/svg">
<path fill-rule="evenodd" clip-rule="evenodd" d="M512 0C229.23 0 0 229.23 0 512c0 226.88 146.88 419.3 350.4 487.2 25.6 4.8 35.2-11.2 35.2-24.8 0-12-0.4-52-0.8-94.4-142.4 31.2-172.4-61.6-172.4-61.6-23.2-58.8-56.8-74.4-56.8-74.4-46.4-31.6 3.6-31.2 3.6-31.2 51.2 3.6 78 52.8 78 52.8 45.6 78.4 119.6 55.6 148.8 42.4 4.8-33.2 17.6-55.6 32-68.4-113.6-12.8-233.2-56.8-233.2-252.8 0-55.6 19.6-101.2 52-136.8-5.2-12.8-22.4-64.8 4.8-135.2 0 0 42.4-13.6 138.4 52 40.4-11.2 83.6-16.8 126.4-17.2 42.8 0.4 86 6 126.4 17.2 96-65.6 138.4-52 138.4-52 27.2 70.4 10 122.4 4.8 135.2 32.4 35.6 52 81.2 52 136.8 0 196.8-119.6 240-233.6 252.4 18 15.6 34 46.4 34 93.6 0 67.6-0.4 122-0.4 138.4 0 13.6 9.2 29.6 35.2 24.8C877.2 931.2 1024 738.8 1024 512 1024 229.23 794.77 0 512 0z" fill="#757185"/>
</svg>